<svg version="1.1" viewBox="0.0 0.0 512.0 512.0" fill="none" stroke="none" stroke-linecap="square" stroke-miterlimit="10" xmlns:xlink="http://www.w3.org/1999/xlink" xmlns="http://www.w3.org/2000/svg"><clipPath id="p.0"><path d="m0 0l512.0 0l0 512.0l-512.0 0l0 -512.0z" clip-rule="nonzero"/></clipPath><g clip-path="url(#p.0)"><path fill="#000000" fill-opacity="0.0" d="m0 0l512.0 0l0 512.0l-512.0 0z" fill-rule="evenodd"/><defs><linearGradient id="p.1" gradientUnits="userSpaceOnUse" gradientTransform="matrix(19.59990776488939 0.0 0.0 19.59990776488939 0.0 0.0)" spreadMethod="pad" x1="22.865230766279772" y1="3.2653248887582986" x2="3.26532462721052" y2="3.257341665913202"><stop offset="0.0" stop-color="#978249"/><stop offset="1.0" stop-color="#d9c084"/></linearGradient></defs><path fill="url(#p.1)" d="m64.0 256.0l0 0c0 -106.038666 85.961334 -192.0 192.0 -192.0l0 0c50.92157 0 99.75751 20.228516 135.7645 56.235497c36.00699 36.00698 56.235504 84.84293 56.235504 135.7645l0 0c0 106.038666 -85.961334 192.0 -192.0 192.0l0 0c-106.038666 0 -192.0 -85.961334 -192.0 -192.0z" fill-rule="evenodd"/><path fill="#ffffff" d="m262.61267 178.23859c17.889343 0 31.238434 3.812378 40.04727 11.437103c8.847656 7.5860443 13.271484 18.287766 13.271484 32.105194c0 13.546478 -4.423828 24.19014 -13.271484 31.931c-8.808838 7.7021484 -22.157928 11.553223 -40.04727 11.553223l-47.206894 0l0 -87.02652zm-105.1241 -47.083725l0 249.70052l57.917206 0l0 -69.551544l50.466568 0c0.9126587 0 1.8201904 -0.00592041 2.7225952 -0.01776123l0 0l48.035004 69.569305l62.573853 0l-55.87622 -80.03244l0 0c0.15426636 -0.066833496 0.30825806 -0.13400269 0.4619751 -0.20147705c16.220703 -7.160309 28.735474 -17.455658 37.54431 -30.886017c8.808868 -13.430359 13.213287 -29.415222 13.213287 -47.95456c0 -18.810272 -4.404419 -34.988663 -13.213287 -48.53514c-8.808838 -13.546494 -21.323608 -23.938583 -37.54431 -31.176285c-16.220703 -7.2763977 -35.52643 -10.914597 -57.917206 -10.914597z" fill-rule="evenodd"/></g></svg>