<?xml version="1.0" encoding="UTF-8"?>
<svg xmlns="http://www.w3.org/2000/svg" xmlns:xlink="http://www.w3.org/1999/xlink" viewBox="0 0 512 512" width="512px" height="512px">
<g id="surface365664">
<path style=" stroke:none;fill-rule:nonzero;fill:rgb(100%,100%,100%);fill-opacity:1;" d="M 232.535156 44.800781 C 134.398438 55.464844 55.464844 134.398438 44.800781 230.398438 C 34.132812 330.667969 91.734375 420.265625 179.199219 454.398438 C 185.601562 456.535156 192 452.265625 192 443.734375 L 192 409.601562 C 192 409.601562 183.464844 411.734375 172.800781 411.734375 C 142.933594 411.734375 130.132812 386.132812 128 371.199219 C 125.867188 362.667969 121.601562 356.265625 115.199219 349.867188 C 108.800781 347.734375 106.667969 347.734375 106.667969 345.601562 C 106.667969 341.332031 113.066406 341.332031 115.199219 341.332031 C 128 341.332031 138.667969 356.265625 142.933594 362.667969 C 153.601562 379.734375 166.398438 384 172.800781 384 C 181.332031 384 187.734375 381.867188 192 379.734375 C 194.132812 364.800781 200.535156 349.867188 213.332031 341.332031 C 164.265625 330.667969 128 302.933594 128 256 C 128 232.535156 138.667969 209.066406 153.601562 192 C 151.464844 187.734375 149.332031 177.066406 149.332031 162.132812 C 149.332031 153.601562 149.332031 142.933594 153.601562 134.398438 C 153.601562 130.132812 157.867188 128 160 128 L 162.132812 128 C 172.800781 130.132812 194.132812 136.535156 213.332031 155.734375 C 226.132812 151.464844 241.066406 149.332031 256 149.332031 C 270.933594 149.332031 285.867188 151.464844 298.667969 155.734375 C 317.867188 136.535156 341.332031 130.132812 352 128 L 354.132812 128 C 358.398438 128 360.535156 130.132812 362.667969 134.398438 C 362.667969 142.933594 362.667969 153.601562 362.667969 162.132812 C 362.667969 179.199219 360.535156 187.734375 358.398438 192 C 373.332031 209.066406 384 230.398438 384 256 C 384 302.933594 347.734375 330.667969 298.667969 341.332031 C 311.464844 352 320 371.199219 320 390.398438 L 320 445.867188 C 320 452.265625 326.398438 458.667969 334.933594 456.535156 C 413.867188 424.535156 469.332031 347.734375 469.332031 258.132812 C 469.332031 130.132812 360.535156 29.867188 232.535156 44.800781 Z M 232.535156 44.800781 "/>
</g>
</svg>
