<?xml version="1.0" encoding="UTF-8"?>
<svg xmlns="http://www.w3.org/2000/svg" xmlns:xlink="http://www.w3.org/1999/xlink" viewBox="0 0 512 512" width="512px" height="512px">
<g id="surface363125">
<path style=" stroke:none;fill-rule:nonzero;fill:rgb(100%,100%,100%);fill-opacity:1;" d="M 419.839844 40.960938 L 92.160156 40.960938 C 63.898438 40.960938 40.960938 63.898438 40.960938 92.160156 L 40.960938 419.839844 C 40.960938 448.101562 63.898438 471.039062 92.160156 471.039062 L 419.839844 471.039062 C 448.101562 471.039062 471.039062 448.101562 471.039062 419.839844 L 471.039062 92.160156 C 471.039062 63.898438 448.101562 40.960938 419.839844 40.960938 Z M 174.078125 204.800781 L 174.078125 399.359375 L 112.640625 399.359375 L 112.640625 204.800781 Z M 112.640625 148.171875 C 112.640625 133.835938 124.929688 122.878906 143.359375 122.878906 C 161.792969 122.878906 173.363281 133.835938 174.078125 148.171875 C 174.078125 162.507812 162.609375 174.078125 143.359375 174.078125 C 124.929688 174.078125 112.640625 162.507812 112.640625 148.171875 Z M 399.359375 399.359375 L 337.921875 399.359375 C 337.921875 399.359375 337.921875 304.539062 337.921875 296.960938 C 337.921875 276.480469 327.679688 256 302.078125 255.589844 L 301.261719 255.589844 C 276.480469 255.589844 266.238281 276.683594 266.238281 296.960938 C 266.238281 306.277344 266.238281 399.359375 266.238281 399.359375 L 204.800781 399.359375 L 204.800781 204.800781 L 266.238281 204.800781 L 266.238281 231.015625 C 266.238281 231.015625 286.003906 204.800781 325.734375 204.800781 C 366.386719 204.800781 399.359375 232.753906 399.359375 289.382812 Z M 399.359375 399.359375 "/>
</g>
</svg>
